<svg width="116" height="32" viewBox="0 0 116 32" fill="none" xmlns="http://www.w3.org/2000/svg">
<path d="M50.0537 23.104V13.248H47.6857V11.008H50.0537V7.104H52.8697V11.008H56.6137V13.248H52.8697V23.104C52.8697 25.152 53.4777 26.112 55.9737 26.112H56.5497V28.128C56.2297 28.288 55.5257 28.384 54.7257 28.384C51.5577 28.384 50.0537 26.688 50.0537 23.104ZM61.8867 16.544H59.0707C59.6147 12.8 62.0787 10.592 66.2387 10.592C70.7827 10.592 72.9907 13.248 72.9907 17.216V23.904C72.9907 25.856 73.1507 27.072 73.5987 28H70.6227C70.3027 27.328 70.2067 26.336 70.1747 25.312C68.7347 27.456 66.4307 28.384 64.3827 28.384C60.8627 28.384 58.4947 26.752 58.4947 23.52C58.4947 21.184 59.7747 19.488 62.2707 18.656C64.5747 17.888 66.9107 17.696 70.1747 17.664V17.28C70.1747 14.528 68.8947 13.024 65.9827 13.024C63.5507 13.024 62.2387 14.368 61.8867 16.544ZM61.3747 23.456C61.3747 25.024 62.6867 25.952 64.6707 25.952C67.8067 25.952 70.1747 23.488 70.1747 20.576V19.776C62.9427 19.84 61.3747 21.376 61.3747 23.456ZM77.6072 28V4.96H80.4232V28H77.6072ZM84.8884 28V4.96H87.7044V18.304L95.0324 11.008H98.4884L90.7444 18.592L98.9364 28H95.3524L87.7044 19.328V28H84.8884ZM100.39 28V25.792L110.47 13.248H100.774V11.008H113.83V13.248L103.75 25.792H114.406V28H100.39Z" fill="#0B0D0C"/>
<path d="M0 8.25195H6.61856L13.5975 28.999H6.94478L0 8.25195Z" fill="#0B0D0C"/>
<path d="M11.3926 8.25195H18.0111L24.9901 28.999H18.3374L11.3926 8.25195Z" fill="#0B0D0C"/>
<path d="M41.6789 16.036C41.6789 18.9373 39.3052 21.322 36.3365 21.322C33.3678 21.322 30.9941 18.9373 30.9941 16.036C30.9941 13.1347 33.3678 10.75 36.3365 10.75C39.3052 10.75 41.6789 13.1347 41.6789 16.036Z" stroke="#0B0D0C" stroke-width="5.5"/>
<path d="M23.1797 8.25195H29.7982L36.7772 28.999H30.1245L23.1797 8.25195Z" fill="#0B0D0C"/>
</svg>
